<svg height="210mm" id="svg2" version="1.1" viewBox="0 0 3508 2480" width="297mm" xmlns="http://www.w3.org/2000/svg" xmlns:dc="http://purl.org/dc/elements/1.1/" xmlns:rdf="http://www.w3.org/1999/02/22-rdf-syntax-ns#" xmlns:svg="http://www.w3.org/2000/svg">
  <defs id="definitions">
    <marker id="Arrow1Mend" orient="auto" refX="0.0" refY="0.0" style="overflow:visible;">
      <path d="M 0.0,0.0 L 15.0,-15.0 L -30,0.0 L 15.0,15.0 L 0.0,0.0 z " style="fill-rule:evenodd;stroke:#4c71d7;stroke-width:1pt;stroke-opacity:1;fill:#4c71d7;fill-opacity:1" transform="scale(0.4) rotate(180) translate(30,0)"/>
    </marker>
    <marker id="Arrow1Mbegin" orient="auto" refX="0.0" refY="0.0" style="overflow:visible;">
      <path d="M 0.0,0.0 L 15.0,-15.0 L -30,0.0 L 15.0,15.0 L 0.0,0.0 z " style="fill-rule:evenodd;stroke:#4c71d7;stroke-width:1pt;stroke-opacity:1;fill:#4c71d7;fill-opacity:1" transform="scale(0.4) translate(30,0)"/>
    </marker>
  </defs>
  <g id="border">
    <rect height="2380" style="fill:none;stroke:#999999;stroke-width:2px;" width="3408" x="50" y="50"/>
    <rect height="500" style="fill:none;stroke:#999999;stroke-width:2px;" width="1400" x="2058" y="1930"/>
    <text style="font-style:normal;font-weight:normal;font-size:25px;font-family:sans-serif;fill:#999999;fill-opacity:1;stroke:none;" x="2078" y="2188">
      <tspan>SIZE:</tspan>
    </text>
    <path d="M 2058,2150 3458,2150" style="fill:none;stroke:#999999;stroke-width:2px;"/>
    <text style="font-style:normal;font-weight:normal;font-size:60px;font-family:sans-serif;fill:#444444;fill-opacity:1;stroke:none;" x="2098" y="2260">
      <tspan>A4</tspan>
    </text>
    <text style="font-style:normal;font-weight:normal;font-size:25px;font-family:sans-serif;fill:#999999;fill-opacity:1;stroke:none;" x="2078" y="2328">
      <tspan>SCALE:</tspan>
    </text>
    <path d="M 2058,2295 3458,2295" style="fill:none;stroke:#999999;stroke-width:2px;"/>
    <text style="font-style:normal;font-weight:normal;font-size:60px;font-family:sans-serif;fill:#444444;fill-opacity:1;stroke:none;" x="2098" y="2390">
      <tspan>1:2</tspan>
    </text>
    <text style="font-style:normal;font-weight:normal;font-size:45px;font-family:sans-serif;fill:#999999;fill-opacity:1;stroke:none;" transform="rotate(-90, 10, 339.50000)" x="3" y="369.50000">
      <tspan>4</tspan>
    </text>
    <text style="font-style:normal;font-weight:normal;font-size:45px;font-family:sans-serif;fill:#999999;fill-opacity:1;stroke:none;" x="3468" y="369.50000">
      <tspan>4</tspan>
    </text>
    <path d="M 0,645.0 50,645.0" style="fill:none;stroke:#999999;stroke-width:2px;"/>
    <path d="M 3458,645.0 3508,645.0" style="fill:none;stroke:#999999;stroke-width:2px;"/>
    <text style="font-style:normal;font-weight:normal;font-size:45px;font-family:sans-serif;fill:#999999;fill-opacity:1;stroke:none;" transform="rotate(-90, 10, 934.50000)" x="3" y="964.50000">
      <tspan>3</tspan>
    </text>
    <text style="font-style:normal;font-weight:normal;font-size:45px;font-family:sans-serif;fill:#999999;fill-opacity:1;stroke:none;" x="3468" y="964.50000">
      <tspan>3</tspan>
    </text>
    <path d="M 0,1240.0 50,1240.0" style="fill:none;stroke:#999999;stroke-width:2px;"/>
    <path d="M 3458,1240.0 3508,1240.0" style="fill:none;stroke:#999999;stroke-width:2px;"/>
    <text style="font-style:normal;font-weight:normal;font-size:45px;font-family:sans-serif;fill:#999999;fill-opacity:1;stroke:none;" transform="rotate(-90, 10, 1529.50000)" x="3" y="1559.50000">
      <tspan>2</tspan>
    </text>
    <text style="font-style:normal;font-weight:normal;font-size:45px;font-family:sans-serif;fill:#999999;fill-opacity:1;stroke:none;" x="3468" y="1559.50000">
      <tspan>2</tspan>
    </text>
    <path d="M 0,1835.0 50,1835.0" style="fill:none;stroke:#999999;stroke-width:2px;"/>
    <path d="M 3458,1835.0 3508,1835.0" style="fill:none;stroke:#999999;stroke-width:2px;"/>
    <text style="font-style:normal;font-weight:normal;font-size:45px;font-family:sans-serif;fill:#999999;fill-opacity:1;stroke:none;" transform="rotate(-90, 10, 2124.50000)" x="3" y="2154.50000">
      <tspan>1</tspan>
    </text>
    <text style="font-style:normal;font-weight:normal;font-size:45px;font-family:sans-serif;fill:#999999;fill-opacity:1;stroke:none;" x="3468" y="2154.50000">
      <tspan>1</tspan>
    </text>
    <text style="font-style:normal;font-weight:normal;font-size:45px;font-family:sans-serif;fill:#999999;fill-opacity:1;stroke:none;" transform="rotate(-90, 356.00000, 45)" x="356.00000" y="47">
      <tspan>F</tspan>
    </text>
    <text style="font-style:normal;font-weight:normal;font-size:45px;font-family:sans-serif;fill:#999999;fill-opacity:1;stroke:none;" x="344.00000" y="2472">
      <tspan>F</tspan>
    </text>
    <path d="M 618.0,0 618.0,50" style="fill:none;stroke:#999999;stroke-width:2px;"/>
    <path d="M 618.0,2430 618.0,2480" style="fill:none;stroke:#999999;stroke-width:2px;"/>
    <text style="font-style:normal;font-weight:normal;font-size:45px;font-family:sans-serif;fill:#999999;fill-opacity:1;stroke:none;" transform="rotate(-90, 924.00000, 45)" x="924.00000" y="47">
      <tspan>E</tspan>
    </text>
    <text style="font-style:normal;font-weight:normal;font-size:45px;font-family:sans-serif;fill:#999999;fill-opacity:1;stroke:none;" x="912.00000" y="2472">
      <tspan>E</tspan>
    </text>
    <path d="M 1186.0,0 1186.0,50" style="fill:none;stroke:#999999;stroke-width:2px;"/>
    <path d="M 1186.0,2430 1186.0,2480" style="fill:none;stroke:#999999;stroke-width:2px;"/>
    <text style="font-style:normal;font-weight:normal;font-size:45px;font-family:sans-serif;fill:#999999;fill-opacity:1;stroke:none;" transform="rotate(-90, 1492.00000, 45)" x="1492.00000" y="47">
      <tspan>D</tspan>
    </text>
    <text style="font-style:normal;font-weight:normal;font-size:45px;font-family:sans-serif;fill:#999999;fill-opacity:1;stroke:none;" x="1480.00000" y="2472">
      <tspan>D</tspan>
    </text>
    <path d="M 1754.0,0 1754.0,50" style="fill:none;stroke:#999999;stroke-width:2px;"/>
    <path d="M 1754.0,2430 1754.0,2480" style="fill:none;stroke:#999999;stroke-width:2px;"/>
    <text style="font-style:normal;font-weight:normal;font-size:45px;font-family:sans-serif;fill:#999999;fill-opacity:1;stroke:none;" transform="rotate(-90, 2060.00000, 45)" x="2060.00000" y="47">
      <tspan>C</tspan>
    </text>
    <text style="font-style:normal;font-weight:normal;font-size:45px;font-family:sans-serif;fill:#999999;fill-opacity:1;stroke:none;" x="2048.00000" y="2472">
      <tspan>C</tspan>
    </text>
    <path d="M 2322.0,0 2322.0,50" style="fill:none;stroke:#999999;stroke-width:2px;"/>
    <path d="M 2322.0,2430 2322.0,2480" style="fill:none;stroke:#999999;stroke-width:2px;"/>
    <text style="font-style:normal;font-weight:normal;font-size:45px;font-family:sans-serif;fill:#999999;fill-opacity:1;stroke:none;" transform="rotate(-90, 2628.00000, 45)" x="2628.00000" y="47">
      <tspan>B</tspan>
    </text>
    <text style="font-style:normal;font-weight:normal;font-size:45px;font-family:sans-serif;fill:#999999;fill-opacity:1;stroke:none;" x="2616.00000" y="2472">
      <tspan>B</tspan>
    </text>
    <path d="M 2890.0,0 2890.0,50" style="fill:none;stroke:#999999;stroke-width:2px;"/>
    <path d="M 2890.0,2430 2890.0,2480" style="fill:none;stroke:#999999;stroke-width:2px;"/>
    <text style="font-style:normal;font-weight:normal;font-size:45px;font-family:sans-serif;fill:#999999;fill-opacity:1;stroke:none;" transform="rotate(-90, 3196.00000, 45)" x="3196.00000" y="47">
      <tspan>A</tspan>
    </text>
    <text style="font-style:normal;font-weight:normal;font-size:45px;font-family:sans-serif;fill:#999999;fill-opacity:1;stroke:none;" x="3184.00000" y="2472">
      <tspan>A</tspan>
    </text>
  </g>
  <g id="rocket" transform="translate(300,600)">
    <path d="M 885.8585858585859,79.72727272727273 A 4961.3002244668905 4961.3002244668905, 0, 0, 1, 0 0 A 4961.3002244668905 4961.3002244668905, 0, 0, 1, 885.8585858585859 -79.72727272727273" id="nose" style="fill:none;stroke:#666666;stroke-width:4px;"/>
    <rect height="159.4545" id="LiPo" style="opacity:1;fill:#ccdddd;fill-opacity:1;stroke:#55bbbb;stroke-width:2px;" width="159.4545" x="885.8586" y="-79.7273"/>
    <rect height="159.4545" id="Flight Computer" style="opacity:1;fill:#ccdddd;fill-opacity:1;stroke:#55bbbb;stroke-width:2px;" width="159.4545" x="885.8586" y="-79.7273"/>
    <rect height="159.4545" id="Nose Mass" style="opacity:1;fill:#ccdddd;fill-opacity:1;stroke:#55bbbb;stroke-width:2px;" width="159.4545" x="885.8586" y="-79.7273"/>
    <rect height="159.4545" id="Body tube" style="fill:none;stroke:#666666;stroke-width:4px;" width="2067.0034" x="885.8586" y="-79.7273"/>
    <circle cx="900" cy="700" r="79.72727" style="fill:none;stroke:#666666;stroke-width:4px;"/>
    <circle cx="900" cy="700" r="2" style="fill:none;stroke:#666666;stroke-width:4px;"/>
    <path d="M 2651.670,-79.727 2825.563,-180.125 2914.149,-180.125 2946.956,-79.727 2651.670,-79.727" id="Fin1" style="fill:#ffffff;stroke:#666666;stroke-width:4px;"/>
    <rect height="8" id="Fin1top" style="fill:none;stroke:#666666;stroke-width:2px;" transform="rotate(0.00, 900, 700)" width="100.3973" x="979.7273" y="695.0000"/>
    <path d="M 2651.670,39.864 2825.563,90.062 2914.149,90.062 2946.956,39.864 2651.670,39.864" id="Fin2" style="fill:#ffffff;stroke:#666666;stroke-width:4px;"/>
    <rect height="8" id="Fin2top" style="fill:none;stroke:#666666;stroke-width:2px;" transform="rotate(120.00, 900, 700)" width="100.3973" x="979.7273" y="695.0000"/>
    <path d="M 2651.670,39.864 2825.563,90.062 2914.149,90.062 2946.956,39.864 2651.670,39.864" id="Fin3" style="fill:#ffffff;stroke:#666666;stroke-width:4px;"/>
    <rect height="8" id="Fin3top" style="fill:none;stroke:#666666;stroke-width:2px;" transform="rotate(240.00, 900, 700)" width="100.3973" x="979.7273" y="695.0000"/>
  </g>
  <g transform="translate(300,850)">
    <path d="M 0.000,0.000 885.859,0.000" style="fill:none;stroke:#4c71d7;stroke-width:2px;marker-start:url(#Arrow1Mbegin);marker-end:url(#Arrow1Mend)"/>
    <rect height="10" style="fill:#ffffff;" width="220" x="412.9" y="-5"/>
    <text style="font-style:normal;font-weight:normal;font-size:45px;font-family:sans-serif;fill:#999999;fill-opacity:1;stroke:none;" x="442.92929" y="16">
      <tspan>0.150 m</tspan>
    </text>
  </g>
  <g transform="translate(300,850)">
    <path d="M 885.859,0.000 2952.862,0.000" style="fill:none;stroke:#4c71d7;stroke-width:2px;marker-start:url(#Arrow1Mbegin);marker-end:url(#Arrow1Mend)"/>
    <rect height="10" style="fill:#ffffff;" width="220" x="1889.4" y="-5"/>
    <text style="font-style:normal;font-weight:normal;font-size:45px;font-family:sans-serif;fill:#999999;fill-opacity:1;stroke:none;" x="1919.36027" y="16">
      <tspan>0.350 m</tspan>
    </text>
  </g>
  <g id="scalebar" transform="translate(350,2200)">
    <path d="M 0.000,0.000 590.572,0.000" style="fill:none;stroke:#000000;stroke-width:9px;"/>
    <text style="font-style:normal;font-weight:normal;font-size:60px;font-family:sans-serif;fill:#000000;fill-opacity:1;stroke:none;" x="-16" y="65">
      <tspan>0</tspan>
    </text>
    <text style="font-style:normal;font-weight:normal;font-size:60px;font-family:sans-serif;fill:#000000;fill-opacity:1;stroke:none;" x="590.57239" y="65">
      <tspan>10 cm</tspan>
    </text>
  </g>
</svg>